<?xml version="1.0"?>
<svg width="280" height="279.416" xmlns="http://www.w3.org/2000/svg" xmlns:svg="http://www.w3.org/2000/svg" enable-background="new 340 140 280 279.416" version="1.1" xml:space="preserve">
 <g class="layer">
  <title>Layer 1</title>
  <path d="m279,166.666l0,-51.333l-31.5,-5.25c-2.333,-8.75 -5.833,-16.917 -9.917,-23.917l18.667,-25.666l-36.167,-36.75l-26.25,18.083c-7.583,-4.083 -15.75,-7.583 -23.916,-9.917l-5.25,-30.916l-51.334,0l-5.25,31.5c-8.75,2.333 -16.333,5.833 -23.916,9.916l-25.667,-18.083l-36.75,36.167l18.667,25.666c-4.083,7.584 -7.583,15.75 -9.917,24.5l-31.5,4.667l0,51.333l31.5,5.25c2.333,8.75 5.833,16.334 9.917,23.917l-18.667,26.25l36.167,36.167l26.25,-18.667c7.583,4.083 15.75,7.583 24.5,9.917l5.25,30.916l51.333,0l5.25,-31.5c8.167,-2.333 16.333,-5.833 23.917,-9.916l26.25,18.666l36.166,-36.166l-18.666,-26.25c4.083,-7.584 7.583,-15.167 9.916,-23.917l30.917,-4.667zm-140,28c-29.75,0 -53.667,-23.916 -53.667,-53.666s24.5,-53.667 53.667,-53.667s53.667,23.917 53.667,53.667s-23.917,53.666 -53.667,53.666z" fill="#007fff" id="svg_1"/>
 </g>
</svg>